<svg xmlns="http://www.w3.org/2000/svg" xml:space="preserve" width="655.359" height="655.359" style="shape-rendering:geometricPrecision;text-rendering:geometricPrecision;image-rendering:optimizeQuality;fill-rule:evenodd;clip-rule:evenodd" viewBox="0 0 6.827 6.827"><defs><style>.fil1{fill:none}.fil2{fill:#689f38}</style></defs><g id="Layer_x0020_1"><path style="fill:#7cb342" d="m1.495 3.337-.357 2.496h4.55l-.357-2.496z"/><g id="_250306552"><path id="_250305952" class="fil1" d="M0 0h6.827v6.827H0z"/><path id="_250306624" class="fil1" d="M.853.853h5.12v5.12H.853z"/></g><ellipse class="fil2" cx="3.39" cy="4.532" rx=".747" ry=".32"/><path d="m3.413 4.617.097-.308a11.272 11.272 0 0 1 .136-.354c.073-.18.149-.36.224-.538l.09-.214c.104-.25.209-.501.305-.755a4.79 4.79 0 0 0 .1-.282c.01-.032.02-.066.027-.1a.302.302 0 0 0 .009-.06c0-.267-.102-.523-.289-.715a.972.972 0 0 0-1.398 0 1.022 1.022 0 0 0-.288.715 1.305 1.305 0 0 0 .036.16c.03.095.064.19.1.282a24.231 24.231 0 0 0 .395.969l.224.538.083.209c.019.048.037.096.053.145l.096.308zm0-3.06a.461.461 0 0 1 .328.79.461.461 0 0 1-.79-.327.461.461 0 0 1 .462-.463z" style="fill:#673ab7"/><path class="fil2" d="M2.166 4.97c.245.1.398.24.398.396 0 .113-.08.217-.216.304-.11.013-.225.02-.344.02a2.58 2.58 0 0 1-.72-.096.25.25 0 0 1-.023-.103c0-.246.381-.454.905-.52z"/><path class="fil2" d="M3.173 5.17c.171.069.278.167.278.276 0 .078-.055.151-.15.212-.077.009-.157.014-.24.014-.187 0-.36-.025-.502-.067a.175.175 0 0 1-.016-.072c0-.172.266-.316.63-.363zM5.333 3.788c-.011.138-.057.236-.135.26-.056.017-.12-.007-.185-.061a1.503 1.503 0 0 1-.126-.541.13.13 0 0 1 .048-.027c.122-.038.284.12.398.37z"/><path class="fil2" d="M5.333 4.242c-.005.069-.029.118-.068.13-.028.009-.06-.003-.092-.03a.755.755 0 0 1-.064-.272.066.066 0 0 1 .024-.014c.062-.019.143.06.2.186z"/></g></svg>